# xmcd
#
# Track frame offsets:
#	150
#	15531
#	29682
#	45204
#	55456
#	77181
#	95770
#	122356
#	139809
#	151285
#	170821
#	182858
#	196052
#
# Disc length: 2842
#
# Revision: 2
# Processed by: cddbd v1.5.1PL0 Copyright (c) Steve Scherf et al.
# Submitted via: dBpowerAMP V4.0
# Normalized: r0:TSWAP
#
DISCID=ab0b180d
DTITLE=Various Artist - The Soul of Christmas
DYEAR=1900
DGENRE=Soul
TTITLE0=The Drifters - Little Drummer Boy
TTITLE1=The Drifters - Winter Wonderland
TTITLE2=The Drifters - We Wish You A Merry Christmas
TTITLE3=The Drifters - Auld Lang Syne
TTITLE4=The Drifters - The Christmas Song
TTITLE5=The Miracles - White Christmas
TTITLE6=The Miracles - Silent Night
TTITLE7=The Miracles - O Holy Night
TTITLE8=The Miracles - Silver Bells
TTITLE9=The Miracles - My Favorite Time Of The Year
TTITLE10=Brook Benton - This Time Of The Year
TTITLE11=Brook Benton - I Wish Every Could Be Like Christmas
TTITLE12=Brook Benton - When A Child Is Born
EXTD=
EXTT0=
EXTT1=
EXTT2=
EXTT3=
EXTT4=
EXTT5=
EXTT6=
EXTT7=
EXTT8=
EXTT9=
EXTT10=
EXTT11=
EXTT12=
PLAYORDER=
